<svg version="1.1" xmlns="http://www.w3.org/2000/svg" viewBox="0 0 400.07969932691276 415.1536817364788" width="400.07969932691276" height="415.1536817364788" filter="invert(93%) hue-rotate(180deg)">
  <!-- svg-source:excalidraw -->
  
  <defs>
    <style class="style-fonts">
      @font-face {
        font-family: "Virgil";
        src: url("https://excalidraw.com/Virgil.woff2");
      }
      @font-face {
        font-family: "Cascadia";
        src: url("https://excalidraw.com/Cascadia.woff2");
      }
    </style>
  </defs>
  <rect x="0" y="0" width="400.07969932691276" height="415.1536817364788" fill="#ffffff"/><g stroke-linecap="round" transform="translate(209.33244161535723 43.66804407915663) rotate(0 83.12897705001568 71.58328579306907)"><path d="M166.26 71.58 C166.26 74.08, 166.11 76.59, 165.8 79.07 C165.5 81.55, 165.04 84.03, 164.44 86.47 C163.84 88.91, 163.08 91.33, 162.19 93.7 C161.29 96.08, 160.25 98.42, 159.07 100.7 C157.89 102.98, 156.57 105.21, 155.12 107.37 C153.67 109.53, 152.08 111.64, 150.38 113.66 C148.68 115.68, 146.84 117.63, 144.91 119.48 C142.97 121.34, 140.91 123.11, 138.75 124.78 C136.6 126.45, 134.33 128.03, 131.99 129.5 C129.65 130.96, 127.2 132.33, 124.69 133.58 C122.19 134.82, 119.59 135.96, 116.94 136.98 C114.29 137.99, 111.57 138.89, 108.82 139.66 C106.06 140.43, 103.25 141.08, 100.41 141.6 C97.58 142.12, 94.7 142.51, 91.82 142.77 C88.94 143.04, 86.03 143.17, 83.13 143.17 C80.23 143.17, 77.32 143.04, 74.44 142.77 C71.56 142.51, 68.68 142.12, 65.85 141.6 C63.01 141.08, 60.2 140.43, 57.44 139.66 C54.69 138.89, 51.96 137.99, 49.32 136.98 C46.67 135.96, 44.07 134.82, 41.56 133.58 C39.06 132.33, 36.61 130.96, 34.27 129.5 C31.92 128.03, 29.66 126.45, 27.5 124.78 C25.35 123.11, 23.29 121.34, 21.35 119.48 C19.41 117.63, 17.58 115.68, 15.88 113.66 C14.17 111.64, 12.59 109.53, 11.14 107.37 C9.69 105.21, 8.36 102.98, 7.19 100.7 C6.01 98.42, 4.96 96.08, 4.07 93.7 C3.17 91.33, 2.42 88.91, 1.82 86.47 C1.21 84.03, 0.76 81.55, 0.46 79.07 C0.15 76.59, 0 74.08, 0 71.58 C0 69.09, 0.15 66.58, 0.46 64.1 C0.76 61.62, 1.21 59.14, 1.82 56.7 C2.42 54.26, 3.17 51.83, 4.07 49.46 C4.96 47.09, 6.01 44.75, 7.19 42.47 C8.36 40.19, 9.69 37.95, 11.14 35.79 C12.59 33.63, 14.17 31.53, 15.88 29.51 C17.58 27.49, 19.41 25.54, 21.35 23.68 C23.29 21.83, 25.35 20.06, 27.5 18.39 C29.66 16.72, 31.92 15.14, 34.27 13.67 C36.61 12.21, 39.06 10.84, 41.56 9.59 C44.07 8.34, 46.67 7.2, 49.32 6.19 C51.96 5.17, 54.69 4.27, 57.44 3.5 C60.2 2.73, 63.01 2.08, 65.85 1.56 C68.68 1.05, 71.56 0.65, 74.44 0.39 C77.32 0.13, 80.23 0, 83.13 0 C86.03 0, 88.94 0.13, 91.82 0.39 C94.7 0.65, 97.58 1.05, 100.41 1.56 C103.25 2.08, 106.06 2.73, 108.82 3.5 C111.57 4.27, 114.29 5.17, 116.94 6.19 C119.59 7.2, 122.19 8.34, 124.69 9.59 C127.2 10.84, 129.65 12.21, 131.99 13.67 C134.33 15.14, 136.6 16.72, 138.75 18.39 C140.91 20.06, 142.97 21.83, 144.91 23.68 C146.84 25.54, 148.68 27.49, 150.38 29.51 C152.08 31.53, 153.67 33.63, 155.12 35.79 C156.57 37.95, 157.89 40.19, 159.07 42.47 C160.25 44.75, 161.29 47.09, 162.19 49.46 C163.08 51.83, 163.84 54.26, 164.44 56.7 C165.04 59.14, 165.5 61.62, 165.8 64.1 C166.11 66.58, 166.18 70.34, 166.26 71.58 C166.33 72.83, 166.33 70.34, 166.26 71.58" stroke="#000000" stroke-width="4" fill="none"/></g><g stroke-linecap="round" transform="translate(232.7732661508574 43.801308731652426) rotate(0 60.80367484356164 30.787904611353667)"><path d="M121.61 30.79 C121.61 32.13, 121.43 33.48, 121.09 34.81 C120.74 36.13, 120.22 37.46, 119.54 38.76 C118.85 40.05, 117.99 41.33, 116.98 42.57 C115.97 43.81, 114.78 45.02, 113.46 46.18 C112.14 47.34, 110.65 48.47, 109.04 49.53 C107.43 50.59, 105.67 51.61, 103.8 52.56 C101.93 53.51, 99.92 54.4, 97.82 55.21 C95.72 56.03, 93.5 56.78, 91.21 57.45 C88.91 58.12, 86.52 58.72, 84.07 59.23 C81.63 59.74, 79.1 60.18, 76.54 60.53 C73.99 60.87, 71.36 61.14, 68.74 61.31 C66.12 61.49, 63.45 61.58, 60.8 61.58 C58.16 61.58, 55.49 61.49, 52.87 61.31 C50.24 61.14, 47.62 60.87, 45.07 60.53 C42.51 60.18, 39.98 59.74, 37.54 59.23 C35.09 58.72, 32.69 58.12, 30.4 57.45 C28.11 56.78, 25.89 56.03, 23.79 55.21 C21.69 54.4, 19.68 53.51, 17.81 52.56 C15.94 51.61, 14.18 50.59, 12.56 49.53 C10.95 48.47, 9.47 47.34, 8.15 46.18 C6.82 45.02, 5.64 43.81, 4.63 42.57 C3.62 41.33, 2.76 40.05, 2.07 38.76 C1.39 37.46, 0.87 36.13, 0.52 34.81 C0.17 33.48, 0 32.13, 0 30.79 C0 29.45, 0.17 28.1, 0.52 26.77 C0.87 25.44, 1.39 24.11, 2.07 22.82 C2.76 21.53, 3.62 20.24, 4.63 19.01 C5.64 17.77, 6.82 16.55, 8.15 15.39 C9.47 14.23, 10.95 13.11, 12.56 12.05 C14.18 10.98, 15.94 9.96, 17.81 9.02 C19.68 8.07, 21.69 7.18, 23.79 6.36 C25.89 5.55, 28.11 4.79, 30.4 4.12 C32.69 3.46, 35.09 2.86, 37.54 2.34 C39.98 1.83, 42.51 1.4, 45.07 1.05 C47.62 0.7, 50.24 0.44, 52.87 0.26 C55.49 0.09, 58.16 0, 60.8 0 C63.45 0, 66.12 0.09, 68.74 0.26 C71.36 0.44, 73.99 0.7, 76.54 1.05 C79.1 1.4, 81.63 1.83, 84.07 2.34 C86.52 2.86, 88.91 3.46, 91.21 4.12 C93.5 4.79, 95.72 5.55, 97.82 6.36 C99.92 7.18, 101.93 8.07, 103.8 9.02 C105.67 9.96, 107.43 10.98, 109.04 12.05 C110.65 13.11, 112.14 14.23, 113.46 15.39 C114.78 16.55, 115.97 17.77, 116.98 19.01 C117.99 20.24, 118.85 21.53, 119.54 22.82 C120.22 24.11, 120.74 25.44, 121.09 26.77 C121.43 28.1, 121.52 30.12, 121.61 30.79 C121.69 31.46, 121.69 30.12, 121.61 30.79" stroke="#000000" stroke-width="4" fill="none"/></g><g stroke-linecap="round" transform="translate(275.5277381551846 54.47036109124838) rotate(0 19.24281876157771 8.979982088736278)"><path d="M38.49 8.98 C38.49 9.5, 38.39 10.03, 38.19 10.54 C38 11.05, 37.71 11.56, 37.33 12.05 C36.94 12.54, 36.46 13.02, 35.91 13.47 C35.35 13.92, 34.7 14.35, 33.98 14.75 C33.27 15.15, 32.47 15.52, 31.61 15.86 C30.76 16.19, 29.83 16.5, 28.86 16.76 C27.9 17.02, 26.87 17.24, 25.82 17.42 C24.78 17.6, 23.68 17.73, 22.58 17.82 C21.49 17.91, 20.36 17.96, 19.24 17.96 C18.13 17.96, 17 17.91, 15.9 17.82 C14.8 17.73, 13.71 17.6, 12.66 17.42 C11.61 17.24, 10.59 17.02, 9.62 16.76 C8.66 16.5, 7.73 16.19, 6.87 15.86 C6.02 15.52, 5.22 15.15, 4.5 14.75 C3.79 14.35, 3.13 13.92, 2.58 13.47 C2.02 13.02, 1.54 12.54, 1.16 12.05 C0.78 11.56, 0.49 11.05, 0.29 10.54 C0.1 10.03, 0 9.5, 0 8.98 C0 8.46, 0.1 7.93, 0.29 7.42 C0.49 6.91, 0.78 6.4, 1.16 5.91 C1.54 5.42, 2.02 4.94, 2.58 4.49 C3.13 4.04, 3.79 3.61, 4.5 3.21 C5.22 2.81, 6.02 2.44, 6.87 2.1 C7.73 1.77, 8.66 1.46, 9.62 1.2 C10.59 0.94, 11.61 0.72, 12.66 0.54 C13.71 0.36, 14.8 0.23, 15.9 0.14 C17 0.05, 18.13 0, 19.24 0 C20.36 0, 21.49 0.05, 22.58 0.14 C23.68 0.23, 24.78 0.36, 25.82 0.54 C26.87 0.72, 27.9 0.94, 28.86 1.2 C29.83 1.46, 30.76 1.77, 31.61 2.1 C32.47 2.44, 33.27 2.81, 33.98 3.21 C34.7 3.61, 35.35 4.04, 35.91 4.49 C36.46 4.94, 36.94 5.42, 37.33 5.91 C37.71 6.4, 38 6.91, 38.19 7.42 C38.39 7.93, 38.44 8.72, 38.49 8.98 C38.53 9.24, 38.53 8.72, 38.49 8.98" stroke="#000000" stroke-width="4" fill="none"/></g><g stroke-linecap="round" transform="translate(275.92005558038557 20.250966715966996) rotate(0 19.24281876157771 8.979982088736278)"><path d="M38.49 8.98 C38.49 9.5, 38.39 10.03, 38.19 10.54 C38 11.05, 37.71 11.56, 37.33 12.05 C36.94 12.54, 36.46 13.02, 35.91 13.47 C35.35 13.92, 34.7 14.35, 33.98 14.75 C33.27 15.15, 32.47 15.52, 31.61 15.86 C30.76 16.19, 29.83 16.5, 28.86 16.76 C27.9 17.02, 26.87 17.24, 25.82 17.42 C24.78 17.6, 23.68 17.73, 22.58 17.82 C21.49 17.91, 20.36 17.96, 19.24 17.96 C18.13 17.96, 17 17.91, 15.9 17.82 C14.8 17.73, 13.71 17.6, 12.66 17.42 C11.61 17.24, 10.59 17.02, 9.62 16.76 C8.66 16.5, 7.73 16.19, 6.87 15.86 C6.02 15.52, 5.22 15.15, 4.5 14.75 C3.79 14.35, 3.13 13.92, 2.58 13.47 C2.02 13.02, 1.54 12.54, 1.16 12.05 C0.78 11.56, 0.49 11.05, 0.29 10.54 C0.1 10.03, 0 9.5, 0 8.98 C0 8.46, 0.1 7.93, 0.29 7.42 C0.49 6.91, 0.78 6.4, 1.16 5.91 C1.54 5.42, 2.02 4.94, 2.58 4.49 C3.13 4.04, 3.79 3.61, 4.5 3.21 C5.22 2.81, 6.02 2.44, 6.87 2.1 C7.73 1.77, 8.66 1.46, 9.62 1.2 C10.59 0.94, 11.61 0.72, 12.66 0.54 C13.71 0.36, 14.8 0.23, 15.9 0.14 C17 0.05, 18.13 0, 19.24 0 C20.36 0, 21.49 0.05, 22.58 0.14 C23.68 0.23, 24.78 0.36, 25.82 0.54 C26.87 0.72, 27.9 0.94, 28.86 1.2 C29.83 1.46, 30.76 1.77, 31.61 2.1 C32.47 2.44, 33.27 2.81, 33.98 3.21 C34.7 3.61, 35.35 4.04, 35.91 4.49 C36.46 4.94, 36.94 5.42, 37.33 5.91 C37.71 6.4, 38 6.91, 38.19 7.42 C38.39 7.93, 38.44 8.72, 38.49 8.98 C38.53 9.24, 38.53 8.72, 38.49 8.98" stroke="#000000" stroke-width="4" fill="none"/></g><g stroke-linecap="round" transform="translate(22.41046443361398 245.9849811962318) rotate(0 84.22940451519227 68.55881762864487)"><path d="M168.46 68.56 C168.46 71.12, 168.28 73.69, 167.93 76.23 C167.58 78.78, 167.05 81.32, 166.35 83.81 C165.65 86.31, 164.77 88.79, 163.73 91.2 C162.69 93.62, 161.48 96, 160.12 98.31 C158.75 100.61, 157.22 102.87, 155.55 105.03 C153.88 107.2, 152.04 109.3, 150.08 111.3 C148.12 113.31, 146.01 115.23, 143.79 117.04 C141.57 118.85, 139.2 120.56, 136.75 122.16 C134.29 123.76, 131.7 125.25, 129.04 126.61 C126.38 127.97, 123.61 129.22, 120.78 130.33 C117.94 131.44, 115.02 132.43, 112.05 133.27 C109.08 134.12, 106.04 134.83, 102.97 135.4 C99.91 135.97, 96.78 136.4, 93.66 136.69 C90.54 136.97, 87.37 137.12, 84.23 137.12 C81.09 137.12, 77.92 136.97, 74.8 136.69 C71.67 136.4, 68.55 135.97, 65.49 135.4 C62.42 134.83, 59.38 134.12, 56.41 133.27 C53.44 132.43, 50.52 131.44, 47.68 130.33 C44.85 129.22, 42.08 127.97, 39.42 126.61 C36.75 125.25, 34.17 123.76, 31.71 122.16 C29.26 120.56, 26.89 118.85, 24.67 117.04 C22.45 115.23, 20.34 113.31, 18.38 111.3 C16.42 109.3, 14.58 107.2, 12.91 105.03 C11.24 102.87, 9.71 100.61, 8.34 98.31 C6.98 96, 5.76 93.62, 4.73 91.2 C3.69 88.79, 2.81 86.31, 2.11 83.81 C1.41 81.32, 0.88 78.78, 0.53 76.23 C0.18 73.69, 0 71.12, 0 68.56 C0 66, 0.18 63.43, 0.53 60.88 C0.88 58.34, 1.41 55.8, 2.11 53.3 C2.81 50.81, 3.69 48.33, 4.73 45.92 C5.76 43.5, 6.98 41.12, 8.34 38.81 C9.71 36.51, 11.24 34.25, 12.91 32.08 C14.58 29.92, 16.42 27.81, 18.38 25.81 C20.34 23.81, 22.45 21.89, 24.67 20.08 C26.89 18.27, 29.26 16.55, 31.71 14.96 C34.17 13.36, 36.75 11.87, 39.42 10.51 C42.08 9.15, 44.85 7.9, 47.68 6.79 C50.52 5.68, 53.44 4.69, 56.41 3.85 C59.38 3, 62.42 2.29, 65.49 1.72 C68.55 1.15, 71.67 0.72, 74.8 0.43 C77.92 0.14, 81.09 0, 84.23 0 C87.37 0, 90.54 0.14, 93.66 0.43 C96.78 0.72, 99.91 1.15, 102.97 1.72 C106.04 2.29, 109.08 3, 112.05 3.85 C115.02 4.69, 117.94 5.68, 120.78 6.79 C123.61 7.9, 126.38 9.15, 129.04 10.51 C131.7 11.87, 134.29 13.36, 136.75 14.96 C139.2 16.55, 141.57 18.27, 143.79 20.08 C146.01 21.89, 148.12 23.81, 150.08 25.81 C152.04 27.81, 153.88 29.92, 155.55 32.08 C157.22 34.25, 158.75 36.51, 160.12 38.81 C161.48 41.12, 162.69 43.5, 163.73 45.92 C164.77 48.33, 165.65 50.81, 166.35 53.3 C167.05 55.8, 167.58 58.34, 167.93 60.88 C168.28 63.43, 168.37 67.28, 168.46 68.56 C168.55 69.84, 168.55 67.28, 168.46 68.56" stroke="#000000" stroke-width="4" fill="none"/></g><g stroke-linecap="round" transform="translate(75.29869517571137 245.98498119623184) rotate(0 32.647056013640395 16.323528006820197)"><path d="M65.29 16.32 C65.29 17.27, 65.13 18.23, 64.8 19.16 C64.47 20.09, 63.97 21.02, 63.33 21.91 C62.68 22.79, 61.87 23.67, 60.92 24.49 C59.98 25.3, 58.87 26.09, 57.66 26.82 C56.44 27.54, 55.08 28.22, 53.63 28.83 C52.18 29.44, 50.61 29.99, 48.97 30.46 C47.33 30.93, 45.59 31.34, 43.81 31.66 C42.04 31.99, 40.18 32.23, 38.32 32.4 C36.46 32.56, 34.54 32.65, 32.65 32.65 C30.76 32.65, 28.84 32.56, 26.98 32.4 C25.12 32.23, 23.26 31.99, 21.48 31.66 C19.71 31.34, 17.96 30.93, 16.32 30.46 C14.69 29.99, 13.11 29.44, 11.66 28.83 C10.21 28.22, 8.85 27.54, 7.64 26.82 C6.42 26.09, 5.32 25.3, 4.37 24.49 C3.43 23.67, 2.62 22.79, 1.97 21.91 C1.32 21.02, 0.82 20.09, 0.5 19.16 C0.17 18.23, 0 17.27, 0 16.32 C0 15.38, 0.17 14.42, 0.5 13.49 C0.82 12.56, 1.32 11.63, 1.97 10.74 C2.62 9.85, 3.43 8.98, 4.37 8.16 C5.32 7.34, 6.42 6.55, 7.64 5.83 C8.85 5.11, 10.21 4.43, 11.66 3.82 C13.11 3.21, 14.69 2.66, 16.32 2.19 C17.96 1.71, 19.71 1.31, 21.48 0.98 C23.26 0.66, 25.12 0.41, 26.98 0.25 C28.84 0.08, 30.76 0, 32.65 0 C34.54 0, 36.46 0.08, 38.32 0.25 C40.18 0.41, 42.04 0.66, 43.81 0.98 C45.59 1.31, 47.33 1.71, 48.97 2.19 C50.61 2.66, 52.18 3.21, 53.63 3.82 C55.08 4.43, 56.44 5.11, 57.66 5.83 C58.87 6.55, 59.98 7.34, 60.92 8.16 C61.87 8.98, 62.68 9.85, 63.33 10.74 C63.97 11.63, 64.47 12.56, 64.8 13.49 C65.13 14.42, 65.21 15.85, 65.29 16.32 C65.38 16.8, 65.38 15.85, 65.29 16.32" stroke="#000000" stroke-width="4" fill="none"/></g><g stroke-linecap="round" transform="translate(44.58513157600987 246.0356430899912) rotate(1.8011605157222563 63.661759226598775 34.27940881432244)"><path d="M127.32 34.28 C127.32 35.77, 127.14 37.28, 126.78 38.75 C126.42 40.23, 125.87 41.71, 125.15 43.15 C124.44 44.59, 123.54 46.02, 122.48 47.4 C121.42 48.78, 120.18 50.13, 118.79 51.42 C117.41 52.71, 115.85 53.96, 114.17 55.15 C112.48 56.33, 110.64 57.46, 108.68 58.52 C106.72 59.57, 104.61 60.57, 102.42 61.48 C100.22 62.38, 97.89 63.22, 95.49 63.97 C93.09 64.71, 90.58 65.38, 88.02 65.95 C85.47 66.52, 82.81 67, 80.14 67.39 C77.46 67.78, 74.72 68.07, 71.97 68.27 C69.23 68.46, 66.43 68.56, 63.66 68.56 C60.89 68.56, 58.1 68.46, 55.35 68.27 C52.61 68.07, 49.86 67.78, 47.18 67.39 C44.51 67, 41.86 66.52, 39.3 65.95 C36.74 65.38, 34.23 64.71, 31.83 63.97 C29.43 63.22, 27.1 62.38, 24.91 61.48 C22.71 60.57, 20.6 59.57, 18.65 58.52 C16.69 57.46, 14.84 56.33, 13.16 55.15 C11.47 53.96, 9.91 52.71, 8.53 51.42 C7.14 50.13, 5.91 48.78, 4.85 47.4 C3.79 46.02, 2.89 44.59, 2.17 43.15 C1.45 41.71, 0.91 40.23, 0.54 38.75 C0.18 37.28, 0 35.77, 0 34.28 C0 32.79, 0.18 31.28, 0.54 29.81 C0.91 28.33, 1.45 26.85, 2.17 25.41 C2.89 23.97, 3.79 22.54, 4.85 21.16 C5.91 19.78, 7.14 18.43, 8.53 17.14 C9.91 15.85, 11.47 14.59, 13.16 13.41 C14.84 12.23, 16.69 11.09, 18.65 10.04 C20.6 8.99, 22.71 7.99, 24.91 7.08 C27.1 6.18, 29.43 5.34, 31.83 4.59 C34.23 3.85, 36.74 3.18, 39.3 2.61 C41.86 2.04, 44.51 1.55, 47.18 1.17 C49.86 0.78, 52.61 0.49, 55.35 0.29 C58.1 0.1, 60.89 0, 63.66 0 C66.43 0, 69.23 0.1, 71.97 0.29 C74.72 0.49, 77.46 0.78, 80.14 1.17 C82.81 1.55, 85.47 2.04, 88.02 2.61 C90.58 3.18, 93.09 3.85, 95.49 4.59 C97.89 5.34, 100.22 6.18, 102.42 7.08 C104.61 7.99, 106.72 8.99, 108.68 10.04 C110.64 11.09, 112.48 12.23, 114.17 13.41 C115.85 14.59, 117.41 15.85, 118.79 17.14 C120.18 18.43, 121.42 19.78, 122.48 21.16 C123.54 22.54, 124.44 23.97, 125.15 25.41 C125.87 26.85, 126.42 28.33, 126.78 29.81 C127.14 31.28, 127.23 33.53, 127.32 34.28 C127.41 35.03, 127.41 33.53, 127.32 34.28" stroke="#000000" stroke-width="4" fill="none"/></g><g transform="translate(96.07879783081898 261.18279788677273) rotate(0 0 -0.2612427807473523)" stroke="none"><path fill="#000000" d="M 1.61,-0.50 Q 1.61,-0.50 1.63,-0.09 1.66,0.30 1.49,0.67 1.32,1.04 1.01,1.29 0.69,1.53 0.29,1.61 -0.10,1.68 -0.48,1.56 -0.87,1.44 -1.15,1.15 -1.44,0.87 -1.56,0.48 -1.68,0.10 -1.61,-0.29 -1.53,-0.69 -1.28,-1.01 -1.04,-1.32 -0.67,-1.49 -0.30,-1.66 0.09,-1.63 0.50,-1.61 0.84,-1.40 1.19,-1.19 1.40,-0.84 L 1.61,-0.50 Z"/></g><g transform="translate(107.05099462220721 256.4804278333206) rotate(0 2.842170943040401e-14 0)" stroke="none"><path fill="#000000" d="M 1.61,-0.50 Q 1.61,-0.50 1.63,-0.09 1.66,0.30 1.49,0.67 1.32,1.04 1.01,1.29 0.69,1.53 0.29,1.61 -0.10,1.68 -0.48,1.56 -0.87,1.44 -1.15,1.15 -1.44,0.87 -1.56,0.48 -1.68,0.10 -1.61,-0.29 -1.53,-0.69 -1.28,-1.01 -1.04,-1.32 -0.67,-1.49 -0.30,-1.66 0.09,-1.63 0.50,-1.61 0.84,-1.40 1.19,-1.19 1.40,-0.84 L 1.61,-0.50 Z"/></g><g transform="translate(118.2844341943428 254.6517283680893) rotate(0 0.13062139037367615 0.13062139037366194)" stroke="none"><path fill="#000000" d="M 1.61,-0.50 Q 1.61,-0.50 1.63,-0.09 1.66,0.30 1.49,0.67 1.32,1.04 1.01,1.29 0.69,1.53 0.29,1.61 -0.10,1.68 -0.48,1.56 -0.87,1.44 -1.15,1.15 -1.44,0.87 -1.56,0.48 -1.68,0.10 -1.61,-0.29 -1.53,-0.69 -1.28,-1.01 -1.04,-1.32 -0.67,-1.49 -0.30,-1.66 0.09,-1.63 0.50,-1.61 0.84,-1.40 1.19,-1.19 1.40,-0.84 L 1.61,-0.50 Z"/></g><g transform="translate(99.81239658847949 254.05304297939688) rotate(0 0 0.11312702386151585)" stroke="none"><path fill="#000000" d="M 3.00,0.13 Q 3.00,0.13 2.92,0.60 2.84,1.08 2.62,1.51 2.39,1.94 2.03,2.28 1.68,2.61 1.24,2.82 0.80,3.02 0.32,3.07 -0.16,3.13 -0.63,3.02 -1.11,2.92 -1.52,2.67 -1.94,2.42 -2.26,2.04 -2.57,1.67 -2.75,1.22 -2.93,0.77 -2.96,0.29 -2.98,-0.19 -2.85,-0.66 -2.72,-1.13 -2.45,-1.53 -2.18,-1.93 -1.79,-2.23 -1.40,-2.52 -0.94,-2.68 -0.48,-2.83 0.00,-2.83 0.48,-2.83 0.94,-2.68 1.40,-2.52 1.79,-2.23 2.18,-1.93 2.45,-1.53 2.72,-1.13 2.85,-0.66 2.98,-0.19 2.96,0.29 2.93,0.77 2.75,1.22 2.57,1.67 2.25,2.05 1.94,2.42 1.52,2.67 1.11,2.92 0.63,3.02 0.16,3.13 -0.32,3.07 -0.80,3.02 -1.24,2.82 -1.68,2.61 -2.04,2.28 -2.39,1.94 -2.62,1.51 -2.84,1.08 -2.92,0.60 -3.00,0.12 -3.00,0.12 -3.00,0.13 -2.97,-0.23 -2.94,-0.59 -2.83,-0.93 -2.72,-1.28 -2.52,-1.58 -2.33,-1.89 -2.07,-2.14 -1.81,-2.39 -1.50,-2.58 -1.18,-2.76 -0.83,-2.86 -0.49,-2.96 -0.12,-2.98 0.23,-2.99 0.58,-2.92 0.94,-2.85 1.27,-2.70 1.60,-2.54 1.88,-2.31 2.16,-2.09 2.38,-1.80 2.60,-1.51 2.74,-1.17 2.88,-0.84 2.94,-0.48 3.00,-0.12 3.00,0.00 L 3.00,0.13 Z"/></g><g transform="translate(112.79833579864868 262.48901179050944) rotate(0 -0.391864171121 -0.5224855614946762)" stroke="none"><path fill="#000000" d="M 1.61,-0.50 Q 1.61,-0.50 1.63,-0.09 1.66,0.30 1.49,0.67 1.32,1.04 1.01,1.29 0.69,1.53 0.29,1.61 -0.10,1.68 -0.48,1.56 -0.87,1.44 -1.15,1.15 -1.44,0.87 -1.56,0.48 -1.68,0.10 -1.61,-0.29 -1.53,-0.69 -1.28,-1.01 -1.04,-1.32 -0.67,-1.49 -0.30,-1.66 0.09,-1.63 0.50,-1.61 0.84,-1.40 1.19,-1.19 1.40,-0.84 L 1.61,-0.50 Z"/></g><g transform="translate(112.3716054894856 261.94411395483803) rotate(0 0.20970668423885286 0.7689245088757986)" stroke="none"><path fill="#000000" d="M 1.67,-0.23 Q 1.67,-0.23 1.62,0.08 1.58,0.40 0.83,1.23 0.09,2.06 -0.78,1.40 -1.65,0.74 -1.15,-0.38 -0.65,-1.50 0.45,-1.51 1.55,-1.52 1.96,-0.13 2.37,1.26 1.09,1.75 -0.18,2.25 -0.97,1.51 -1.75,0.77 -1.28,-0.44 -0.80,-1.65 0.24,-1.83 1.29,-2.00 2.11,-1.13 2.92,-0.25 2.63,0.82 2.34,1.89 1.31,2.53 0.28,3.16 -0.91,2.55 -2.10,1.93 -2.04,0.69 -1.98,-0.55 -1.02,-1.03 -0.06,-1.52 1.26,-0.83 2.59,-0.14 2.64,0.94 2.69,2.02 1.80,2.84 0.91,3.66 0.48,2.70 0.04,1.74 -0.11,1.73 -0.26,1.73 -0.42,1.69 -0.57,1.65 -0.71,1.58 -0.85,1.50 -0.97,1.40 -1.08,1.29 -1.17,1.16 -1.26,1.03 -1.32,0.88 -1.37,0.73 -1.39,0.58 -1.41,0.42 -1.39,0.26 -1.37,0.10 -1.31,-0.03 -1.25,-0.18 -1.16,-0.31 -1.07,-0.44 -0.95,-0.54 -0.83,-0.65 -0.69,-0.72 -0.55,-0.79 -0.39,-0.83 -0.24,-0.86 -0.73,-0.55 -1.21,-0.24 -1.08,-0.40 -0.94,-0.57 -0.75,-0.67 -0.57,-0.78 -0.36,-0.83 -0.16,-0.87 0.04,-0.85 0.26,-0.82 0.45,-0.73 0.64,-0.64 0.79,-0.49 0.95,-0.35 1.05,-0.16 1.14,0.02 1.18,0.23 1.21,0.44 1.17,0.65 1.14,0.86 1.04,1.05 0.94,1.23 0.78,1.38 0.63,1.52 0.43,1.61 0.24,1.70 0.03,1.72 -0.17,1.74 -0.38,1.69 -0.59,1.65 -0.77,1.54 -0.95,1.43 -1.09,1.26 -1.22,1.10 -1.30,0.90 -1.38,0.70 -1.39,0.49 -1.40,0.28 -1.34,0.08 -1.28,-0.12 -1.16,-0.29 -1.04,-0.47 -0.87,-0.60 -0.70,-0.72 -0.50,-0.79 -0.30,-0.86 -0.09,-0.86 0.12,-0.85 0.32,-0.78 0.52,-0.72 0.69,-0.59 0.86,-0.46 0.97,-0.28 1.09,-0.10 1.15,0.09 1.20,0.30 1.19,0.51 1.18,0.72 0.61,1.23 0.04,1.74 -0.11,1.73 -0.26,1.73 -0.42,1.69 -0.57,1.65 -0.71,1.58 -0.85,1.50 -0.97,1.40 -1.08,1.29 -1.17,1.16 -1.26,1.03 -1.32,0.88 -1.37,0.73 -1.39,0.58 -1.41,0.42 -1.39,0.26 -1.37,0.10 -1.31,-0.03 -1.25,-0.18 -1.16,-0.31 -1.07,-0.44 -0.95,-0.54 -0.83,-0.65 -0.69,-0.72 -0.55,-0.79 -0.39,-0.83 -0.24,-0.86 -0.11,0.51 0.00,1.90 0.33,0.72 0.66,-0.45 -0.37,0.13 -1.42,0.72 -1.54,0.47 -1.67,0.23 -1.67,0.03 -1.67,-0.16 -1.63,-0.36 -1.59,-0.56 -1.49,-0.74 -1.40,-0.92 -1.27,-1.08 -1.14,-1.23 -0.98,-1.35 -0.81,-1.47 -0.62,-1.55 -0.43,-1.62 -0.23,-1.65 -0.03,-1.68 0.16,-1.66 0.36,-1.64 0.56,-1.57 0.75,-1.51 0.92,-1.39 1.09,-1.28 1.23,-1.13 1.36,-0.98 1.46,-0.80 1.56,-0.63 1.61,-0.43 1.67,-0.23 1.67,-0.23 L 1.67,-0.23 Z"/></g><g transform="translate(117.68417482353658 254.67428223455772) rotate(0 0.5592178246369315 0.4893155965573328)" stroke="none"><path fill="#000000" d="M 0.81,-1.47 Q 0.81,-1.47 1.16,-1.18 1.50,-0.89 1.98,0.20 2.45,1.30 1.67,2.17 0.89,3.05 -0.16,2.76 -1.21,2.48 -1.62,1.49 -2.02,0.50 -1.63,-0.51 -1.24,-1.52 0.22,-1.73 1.69,-1.94 2.40,-1.08 3.11,-0.23 3.01,0.85 2.91,1.94 1.66,2.40 0.42,2.86 -0.54,2.00 -1.51,1.14 -1.38,0.82 -1.26,0.50 -1.25,0.29 -1.24,0.08 -1.16,-0.11 -1.09,-0.31 -0.95,-0.47 -0.82,-0.64 -0.64,-0.75 -0.46,-0.86 -0.25,-0.91 -0.04,-0.96 0.16,-0.94 0.37,-0.92 0.56,-0.83 0.76,-0.75 0.92,-0.60 1.07,-0.46 1.17,-0.27 1.28,-0.09 1.31,0.11 1.35,0.32 1.32,0.53 1.29,0.74 1.19,0.93 1.09,1.12 0.94,1.27 0.79,1.42 0.60,1.51 0.41,1.60 0.20,1.63 -0.00,1.65 -0.21,1.61 -0.42,1.57 -0.60,1.46 -0.79,1.35 -0.93,1.19 -1.07,1.03 -1.15,0.84 -1.23,0.64 -1.25,0.43 -1.26,0.22 -1.21,0.01 -1.15,-0.18 -1.04,-0.36 -0.92,-0.54 -0.75,-0.67 -0.58,-0.80 -0.38,-0.87 -0.18,-0.94 0.02,-0.94 0.23,-0.95 0.43,-0.88 0.64,-0.82 0.81,-0.69 0.98,-0.57 1.10,-0.39 1.22,-0.22 1.28,-0.01 1.34,0.18 1.34,0.18 1.34,0.18 1.38,0.15 1.42,0.12 0.68,0.91 -0.05,1.69 -0.43,1.58 -0.81,1.47 -0.98,1.35 -1.14,1.23 -1.28,1.08 -1.41,0.92 -1.50,0.74 -1.59,0.56 -1.63,0.36 -1.67,0.16 -1.67,-0.03 -1.67,-0.24 -1.61,-0.43 -1.56,-0.63 -1.46,-0.81 -1.36,-0.99 -1.22,-1.14 -1.08,-1.28 -0.91,-1.40 -0.74,-1.51 -0.55,-1.58 -0.36,-1.64 -0.16,-1.66 0.04,-1.68 0.24,-1.65 0.44,-1.62 0.63,-1.55 0.81,-1.47 0.81,-1.47 L 0.81,-1.47 Z"/></g><g transform="translate(106.91923169927537 255.93252233999084) rotate(0 0.7689245088757843 0.4893155965573328)" stroke="none"><path fill="#000000" d="M -0.36,-1.64 Q -0.36,-1.64 0.06,-1.65 0.48,-1.66 1.51,-1.00 2.53,-0.34 2.30,0.91 2.06,2.18 0.90,2.60 -0.25,3.03 -1.06,2.28 -1.87,1.52 -1.66,0.46 -1.45,-0.59 -0.34,-1.23 0.76,-1.87 1.98,-1.35 3.20,-0.83 3.27,0.38 3.34,1.60 2.24,2.45 1.15,3.29 0.04,2.73 -1.05,2.17 -0.98,1.58 -0.91,1.00 -0.99,0.80 -1.08,0.61 -1.10,0.40 -1.12,0.19 -1.07,-0.01 -1.02,-0.22 -0.91,-0.40 -0.80,-0.58 -0.64,-0.71 -0.47,-0.85 -0.28,-0.93 -0.08,-1.00 0.12,-1.01 0.34,-1.02 0.54,-0.96 0.74,-0.90 0.92,-0.78 1.09,-0.66 1.22,-0.49 1.35,-0.32 1.41,-0.12 1.48,0.08 1.48,0.29 1.47,0.50 1.40,0.70 1.33,0.90 1.20,1.07 1.07,1.24 0.89,1.36 0.72,1.47 0.51,1.53 0.31,1.58 0.09,1.57 -0.11,1.55 -0.30,1.47 -0.50,1.39 -0.66,1.25 -0.82,1.11 -0.93,0.93 -1.04,0.75 -1.08,0.54 -1.12,0.33 -1.10,0.12 -1.07,-0.08 -0.98,-0.27 -0.89,-0.47 -0.74,-0.62 -0.59,-0.77 -0.40,-0.87 -0.21,-0.97 -0.00,-1.00 0.20,-1.03 0.40,-0.99 0.61,-0.96 0.80,-0.85 0.99,-0.75 1.13,-0.60 1.28,-0.44 1.28,-0.44 1.28,-0.44 1.11,0.44 0.95,1.34 0.66,1.49 0.36,1.64 0.16,1.66 -0.03,1.68 -0.24,1.65 -0.44,1.62 -0.63,1.55 -0.81,1.47 -0.98,1.35 -1.14,1.23 -1.27,1.08 -1.41,0.92 -1.50,0.74 -1.59,0.56 -1.63,0.36 -1.67,0.16 -1.67,-0.03 -1.67,-0.24 -1.61,-0.43 -1.56,-0.63 -1.46,-0.81 -1.36,-0.99 -1.22,-1.13 -1.08,-1.28 -0.91,-1.40 -0.74,-1.51 -0.55,-1.57 -0.36,-1.64 -0.36,-1.64 L -0.36,-1.64 Z"/></g><g transform="translate(95.87467966269571 260.96548276172337) rotate(0 0.1398044561592542 0.4893155965573257)" stroke="none"><path fill="#000000" d="M -0.86,-1.44 Q -0.86,-1.44 -0.39,-1.63 0.07,-1.82 1.27,-1.69 2.46,-1.57 2.74,-0.17 3.02,1.21 1.99,2.06 0.96,2.91 -0.38,2.92 -1.73,2.93 -2.39,2.10 -3.06,1.26 -2.50,-0.04 -1.94,-1.36 -0.91,-1.66 0.11,-1.95 1.20,-1.48 2.29,-1.00 2.54,0.08 2.79,1.17 2.07,2.24 1.35,3.31 -0.12,3.05 -1.61,2.80 -1.80,1.27 -2.00,-0.26 -1.25,-1.24 -0.51,-2.22 0.56,-2.38 1.63,-2.54 1.44,-1.56 1.24,-0.58 1.34,-0.45 1.44,-0.32 1.50,-0.18 1.57,-0.04 1.59,0.11 1.62,0.27 1.61,0.42 1.60,0.58 1.55,0.73 1.50,0.88 1.42,1.02 1.34,1.15 1.22,1.26 1.11,1.38 0.98,1.46 0.84,1.54 0.69,1.58 0.54,1.63 0.38,1.64 0.22,1.65 0.06,1.62 -0.08,1.59 -0.22,1.52 -0.37,1.46 -0.49,1.36 -0.62,1.26 -0.75,1.06 -0.88,0.87 -0.93,0.67 -0.99,0.46 -0.97,0.25 -0.96,0.04 -0.88,-0.15 -0.80,-0.35 -0.66,-0.51 -0.52,-0.67 -0.33,-0.77 -0.15,-0.88 0.05,-0.92 0.26,-0.97 0.47,-0.94 0.68,-0.91 0.87,-0.82 1.06,-0.73 1.21,-0.58 1.37,-0.43 1.46,-0.24 1.56,-0.06 1.59,0.14 1.62,0.35 1.59,0.56 1.55,0.77 1.45,0.96 1.34,1.15 1.19,1.29 1.03,1.43 0.84,1.52 0.64,1.61 0.43,1.63 0.22,1.65 0.01,1.60 -0.18,1.55 -0.36,1.44 -0.54,1.33 -0.68,1.16 -0.82,1.00 -0.89,0.80 -0.97,0.60 -0.98,0.39 -0.98,0.18 -0.92,-0.02 -0.86,-0.22 -0.74,-0.40 -0.62,-0.57 -0.45,-0.70 -0.28,-0.82 -0.08,-0.89 0.12,-0.95 0.33,-0.95 0.54,-0.95 0.74,-0.88 0.94,-0.81 1.11,-0.67 1.28,-0.54 1.26,-0.56 1.24,-0.58 1.34,-0.45 1.44,-0.32 1.50,-0.18 1.57,-0.04 1.59,0.11 1.62,0.27 1.61,0.42 1.60,0.58 1.55,0.73 1.50,0.88 1.42,1.02 1.34,1.15 1.22,1.26 1.11,1.38 0.98,1.46 0.84,1.54 0.69,1.58 0.54,1.63 0.38,1.64 0.22,1.65 0.07,1.62 -0.08,1.59 -0.22,1.52 -0.37,1.46 -0.49,1.36 -0.62,1.26 0.35,0.82 1.32,0.38 0.26,0.24 -0.78,0.10 0.37,0.48 1.53,0.86 1.19,1.15 0.86,1.44 0.68,1.53 0.49,1.61 0.29,1.64 0.09,1.68 -0.10,1.67 -0.30,1.65 -0.50,1.59 -0.69,1.53 -0.87,1.43 -1.04,1.32 -1.18,1.18 -1.33,1.03 -1.43,0.86 -1.54,0.68 -1.60,0.49 -1.66,0.29 -1.67,0.09 -1.68,-0.10 -1.64,-0.30 -1.60,-0.50 -1.52,-0.69 -1.44,-0.87 -1.31,-1.03 -1.18,-1.19 -1.02,-1.32 -0.86,-1.44 -0.86,-1.44 L -0.86,-1.44 Z"/></g><g stroke-linecap="round"><g transform="translate(294.9981581813497 39.8652593989174) rotate(0 -0.12903434163624183 16.258327046166286)"><path d="M0 0 C-0.04 5.42, -0.22 27.1, -0.26 32.52 M0 0 C-0.04 5.42, -0.22 27.1, -0.26 32.52" stroke="#000000" stroke-width="2" fill="none"/></g></g><mask/><g stroke-linecap="round"><g transform="translate(302.66956790650397 40.11820404172187) rotate(0 -0.3010801304845643 15.398098101924688)"><path d="M0 0 C-0.1 5.13, -0.5 25.66, -0.6 30.8 M0 0 C-0.1 5.13, -0.5 25.66, -0.6 30.8" stroke="#000000" stroke-width="2" fill="none"/></g></g><mask/><g stroke-linecap="round"><g transform="translate(309.46537656601265 37.36547142014874) rotate(0 -0.12903434163624183 15.742189679621319)"><path d="M0 0 C-0.04 5.25, -0.22 26.24, -0.26 31.48 M0 0 C-0.04 5.25, -0.22 26.24, -0.26 31.48" stroke="#000000" stroke-width="2" fill="none"/></g></g><mask/><g stroke-linecap="round"><g transform="translate(287.09942401573096 38.121701462870334) rotate(0 -0.263994444109116 15.843126338430054)"><path d="M0 0 C-0.09 5.28, -0.44 26.41, -0.53 31.69 M0 0 C-0.09 5.28, -0.44 26.41, -0.53 31.69" stroke="#000000" stroke-width="2" fill="none"/></g></g><mask/><g stroke-linecap="round"><g transform="translate(280.4240626839943 35.2789812838318) rotate(0 -0.3334975507672624 16.8412940444843)"><path d="M0 0 C-0.11 5.61, -0.56 28.07, -0.67 33.68 M0 0 C-0.11 5.61, -0.56 28.07, -0.67 33.68" stroke="#000000" stroke-width="2" fill="none"/></g></g><mask/><g stroke-linecap="round"><g transform="translate(274.82333236239083 29.388399575202072) rotate(0 0.10201291223406628 16.718776713776492)"><path d="M0 0 C0.03 5.57, 0.17 27.86, 0.2 33.44 M0 0 C0.03 5.57, 0.17 27.86, 0.2 33.44" stroke="#000000" stroke-width="2" fill="none"/></g></g><mask/><g stroke-linecap="round"><g transform="translate(315.4814973561042 29.938814565238516) rotate(0 -0.37677768152074975 16.609582834975924)"><path d="M0 0 C-0.13 5.54, -0.63 27.68, -0.75 33.22 M0 0 C-0.13 5.54, -0.63 27.68, -0.75 33.22" stroke="#000000" stroke-width="2" fill="none"/></g></g><mask/><g stroke-linecap="round" transform="translate(213.49462934730713 264.076673758429) rotate(0 78.68585568149891 22.50480234512004)"><path d="M157.37 22.5 C157.37 23.41, 157.18 24.32, 156.8 25.22 C156.42 26.12, 155.84 27.01, 155.09 27.89 C154.33 28.77, 153.38 29.64, 152.26 30.49 C151.14 31.33, 149.83 32.16, 148.36 32.96 C146.89 33.76, 145.24 34.54, 143.44 35.29 C141.65 36.03, 139.68 36.75, 137.58 37.43 C135.49 38.11, 133.23 38.75, 130.86 39.35 C128.5 39.95, 125.99 40.51, 123.38 41.03 C120.78 41.54, 118.05 42.01, 115.25 42.43 C112.45 42.85, 109.54 43.23, 106.59 43.55 C103.63 43.87, 100.59 44.14, 97.52 44.36 C94.45 44.57, 91.31 44.74, 88.17 44.85 C85.03 44.95, 81.85 45.01, 78.69 45.01 C75.52 45.01, 72.34 44.95, 69.2 44.85 C66.06 44.74, 62.92 44.57, 59.86 44.36 C56.79 44.14, 53.74 43.87, 50.78 43.55 C47.83 43.23, 44.92 42.85, 42.12 42.43 C39.32 42.01, 36.59 41.54, 33.99 41.03 C31.39 40.51, 28.87 39.95, 26.51 39.35 C24.14 38.75, 21.89 38.11, 19.79 37.43 C17.69 36.75, 15.72 36.03, 13.93 35.29 C12.13 34.54, 10.48 33.76, 9.01 32.96 C7.54 32.16, 6.23 31.33, 5.11 30.49 C3.99 29.64, 3.04 28.77, 2.29 27.89 C1.53 27.01, 0.95 26.12, 0.57 25.22 C0.19 24.32, 0 23.41, 0 22.5 C0 21.6, 0.19 20.69, 0.57 19.79 C0.95 18.89, 1.53 18, 2.29 17.12 C3.04 16.24, 3.99 15.37, 5.11 14.52 C6.23 13.68, 7.54 12.85, 9.01 12.05 C10.48 11.25, 12.13 10.46, 13.93 9.72 C15.72 8.98, 17.69 8.26, 19.79 7.58 C21.89 6.9, 24.14 6.26, 26.51 5.66 C28.87 5.06, 31.39 4.5, 33.99 3.98 C36.59 3.47, 39.32 3, 42.12 2.58 C44.92 2.16, 47.83 1.78, 50.78 1.46 C53.74 1.14, 56.79 0.87, 59.86 0.65 C62.92 0.44, 66.06 0.27, 69.2 0.16 C72.34 0.06, 75.52 0, 78.69 0 C81.85 0, 85.03 0.06, 88.17 0.16 C91.31 0.27, 94.45 0.44, 97.52 0.65 C100.59 0.87, 103.63 1.14, 106.59 1.46 C109.54 1.78, 112.45 2.16, 115.25 2.58 C118.05 3, 120.78 3.47, 123.38 3.98 C125.99 4.5, 128.5 5.06, 130.86 5.66 C133.23 6.26, 135.49 6.9, 137.58 7.58 C139.68 8.26, 141.65 8.98, 143.44 9.72 C145.24 10.46, 146.89 11.25, 148.36 12.05 C149.83 12.85, 151.14 13.68, 152.26 14.52 C153.38 15.37, 154.33 16.24, 155.09 17.12 C155.84 18, 156.42 18.89, 156.8 19.79 C157.18 20.69, 157.37 21.6, 157.37 22.5" stroke="#000000" stroke-width="2" fill="none"/></g><g stroke-linecap="round" transform="translate(212.00369178932291 293.85862422187716) rotate(0 78.68585568149891 22.50480234512004)"><path d="M157.37 22.5 C157.37 23.41, 157.18 24.32, 156.8 25.22 C156.42 26.12, 155.84 27.01, 155.09 27.89 C154.33 28.77, 153.38 29.64, 152.26 30.49 C151.14 31.33, 149.83 32.16, 148.36 32.96 C146.89 33.76, 145.24 34.54, 143.44 35.29 C141.65 36.03, 139.68 36.75, 137.58 37.43 C135.49 38.11, 133.23 38.75, 130.86 39.35 C128.5 39.95, 125.99 40.51, 123.38 41.03 C120.78 41.54, 118.05 42.01, 115.25 42.43 C112.45 42.85, 109.54 43.23, 106.59 43.55 C103.63 43.87, 100.59 44.14, 97.52 44.36 C94.45 44.57, 91.31 44.74, 88.17 44.85 C85.03 44.95, 81.85 45.01, 78.69 45.01 C75.52 45.01, 72.34 44.95, 69.2 44.85 C66.06 44.74, 62.92 44.57, 59.86 44.36 C56.79 44.14, 53.74 43.87, 50.78 43.55 C47.83 43.23, 44.92 42.85, 42.12 42.43 C39.32 42.01, 36.59 41.54, 33.99 41.03 C31.39 40.51, 28.87 39.95, 26.51 39.35 C24.14 38.75, 21.89 38.11, 19.79 37.43 C17.69 36.75, 15.72 36.03, 13.93 35.29 C12.13 34.54, 10.48 33.76, 9.01 32.96 C7.54 32.16, 6.23 31.33, 5.11 30.49 C3.99 29.64, 3.04 28.77, 2.29 27.89 C1.53 27.01, 0.95 26.12, 0.57 25.22 C0.19 24.32, 0 23.41, 0 22.5 C0 21.6, 0.19 20.69, 0.57 19.79 C0.95 18.89, 1.53 18, 2.29 17.12 C3.04 16.24, 3.99 15.37, 5.11 14.52 C6.23 13.68, 7.54 12.85, 9.01 12.05 C10.48 11.25, 12.13 10.46, 13.93 9.72 C15.72 8.98, 17.69 8.26, 19.79 7.58 C21.89 6.9, 24.14 6.26, 26.51 5.66 C28.87 5.06, 31.39 4.5, 33.99 3.98 C36.59 3.47, 39.32 3, 42.12 2.58 C44.92 2.16, 47.83 1.78, 50.78 1.46 C53.74 1.14, 56.79 0.87, 59.86 0.65 C62.92 0.44, 66.06 0.27, 69.2 0.16 C72.34 0.06, 75.52 0, 78.69 0 C81.85 0, 85.03 0.06, 88.17 0.16 C91.31 0.27, 94.45 0.44, 97.52 0.65 C100.59 0.87, 103.63 1.14, 106.59 1.46 C109.54 1.78, 112.45 2.16, 115.25 2.58 C118.05 3, 120.78 3.47, 123.38 3.98 C125.99 4.5, 128.5 5.06, 130.86 5.66 C133.23 6.26, 135.49 6.9, 137.58 7.58 C139.68 8.26, 141.65 8.98, 143.44 9.72 C145.24 10.46, 146.89 11.25, 148.36 12.05 C149.83 12.85, 151.14 13.68, 152.26 14.52 C153.38 15.37, 154.33 16.24, 155.09 17.12 C155.84 18, 156.42 18.89, 156.8 19.79 C157.18 20.69, 157.37 21.6, 157.37 22.5" stroke="#000000" stroke-width="2" fill="none"/></g><g stroke-linecap="round" transform="translate(213.9718426707687 319.4762051564751) rotate(0 77.66844758077019 26.235298714458672)"><path d="M155.34 26.24 C155.34 27.29, 155.15 28.35, 154.77 29.4 C154.39 30.44, 153.83 31.49, 153.08 32.51 C152.33 33.54, 151.4 34.55, 150.29 35.54 C149.18 36.52, 147.89 37.49, 146.44 38.43 C144.99 39.36, 143.36 40.27, 141.59 41.14 C139.82 42.01, 137.87 42.84, 135.8 43.63 C133.73 44.42, 131.51 45.17, 129.17 45.87 C126.84 46.57, 124.36 47.23, 121.79 47.83 C119.22 48.43, 116.53 48.98, 113.76 49.47 C111 49.96, 108.13 50.39, 105.21 50.77 C102.29 51.14, 99.29 51.46, 96.26 51.71 C93.23 51.96, 90.13 52.15, 87.03 52.28 C83.93 52.41, 80.79 52.47, 77.67 52.47 C74.55 52.47, 71.4 52.41, 68.31 52.28 C65.21 52.15, 62.11 51.96, 59.08 51.71 C56.05 51.46, 53.04 51.14, 50.13 50.77 C47.21 50.39, 44.34 49.96, 41.57 49.47 C38.81 48.98, 36.12 48.43, 33.55 47.83 C30.98 47.23, 28.5 46.57, 26.16 45.87 C23.83 45.17, 21.6 44.42, 19.53 43.63 C17.46 42.84, 15.52 42.01, 13.75 41.14 C11.98 40.27, 10.35 39.36, 8.9 38.43 C7.45 37.49, 6.15 36.52, 5.05 35.54 C3.94 34.55, 3 33.54, 2.26 32.51 C1.51 31.49, 0.94 30.44, 0.57 29.4 C0.19 28.35, 0 27.29, 0 26.24 C0 25.18, 0.19 24.12, 0.57 23.07 C0.94 22.03, 1.51 20.98, 2.26 19.96 C3 18.93, 3.94 17.92, 5.05 16.93 C6.15 15.95, 7.45 14.98, 8.9 14.04 C10.35 13.11, 11.98 12.2, 13.75 11.33 C15.52 10.46, 17.46 9.63, 19.53 8.84 C21.6 8.05, 23.83 7.3, 26.16 6.6 C28.5 5.9, 30.98 5.24, 33.55 4.64 C36.12 4.05, 38.81 3.49, 41.57 3.01 C44.34 2.52, 47.21 2.08, 50.13 1.7 C53.04 1.33, 56.05 1.01, 59.08 0.76 C62.11 0.51, 65.21 0.32, 68.31 0.19 C71.4 0.06, 74.55 0, 77.67 0 C80.79 0, 83.93 0.06, 87.03 0.19 C90.13 0.32, 93.23 0.51, 96.26 0.76 C99.29 1.01, 102.29 1.33, 105.21 1.7 C108.13 2.08, 111 2.52, 113.76 3.01 C116.53 3.49, 119.22 4.05, 121.79 4.64 C124.36 5.24, 126.84 5.9, 129.17 6.6 C131.51 7.3, 133.73 8.05, 135.8 8.84 C137.87 9.63, 139.82 10.46, 141.59 11.33 C143.36 12.2, 144.99 13.11, 146.44 14.04 C147.89 14.98, 149.18 15.95, 150.29 16.93 C151.4 17.92, 152.33 18.93, 153.08 19.96 C153.83 20.98, 154.39 22.03, 154.77 23.07 C155.15 24.12, 155.34 25.18, 155.34 26.24" stroke="#000000" stroke-width="2" fill="none"/></g><g stroke-linecap="round"><g transform="translate(371.75522029983625 281.2813619805802) rotate(0 -0.08242435140113002 37.353702723002044)"><path d="M0 0 C-0.07 6.58, -0.5 27.01, -0.45 39.46 C-0.4 51.91, 0.16 68.83, 0.28 74.71 M0 0 C-0.07 6.58, -0.5 27.01, -0.45 39.46 C-0.4 51.91, 0.16 68.83, 0.28 74.71" stroke="#000000" stroke-width="4" fill="none"/></g></g><mask/><g stroke-linecap="round" transform="translate(211.41945458707667 317.62700794431714) rotate(0 80.30823236603932 37.700970821356094)"><path d="M160.62 37.7 C160.62 39.22, 160.42 40.74, 160.03 42.25 C159.64 43.75, 159.06 45.25, 158.28 46.72 C157.51 48.19, 156.54 49.65, 155.4 51.07 C154.25 52.49, 152.92 53.88, 151.42 55.22 C149.92 56.56, 148.23 57.87, 146.4 59.12 C144.57 60.36, 142.56 61.57, 140.42 62.7 C138.28 63.84, 135.98 64.92, 133.56 65.92 C131.15 66.93, 128.58 67.87, 125.93 68.73 C123.27 69.59, 120.49 70.38, 117.63 71.08 C114.77 71.79, 111.8 72.41, 108.79 72.95 C105.77 73.49, 102.66 73.94, 99.53 74.31 C96.39 74.67, 93.19 74.94, 89.99 75.13 C86.79 75.31, 83.53 75.4, 80.31 75.4 C77.08 75.4, 73.83 75.31, 70.63 75.13 C67.42 74.94, 64.22 74.67, 61.09 74.31 C57.96 73.94, 54.85 73.49, 51.83 72.95 C48.81 72.41, 45.84 71.79, 42.99 71.08 C40.13 70.38, 37.34 69.59, 34.69 68.73 C32.03 67.87, 29.47 66.93, 27.05 65.92 C24.64 64.92, 22.34 63.84, 20.2 62.7 C18.06 61.57, 16.05 60.36, 14.22 59.12 C12.38 57.87, 10.7 56.56, 9.2 55.22 C7.7 53.88, 6.36 52.49, 5.22 51.07 C4.07 49.65, 3.11 48.19, 2.33 46.72 C1.56 45.25, 0.97 43.75, 0.59 42.25 C0.2 40.74, 0 39.22, 0 37.7 C0 36.19, 0.2 34.66, 0.59 33.16 C0.97 31.65, 1.56 30.15, 2.33 28.68 C3.11 27.21, 4.07 25.75, 5.22 24.33 C6.36 22.92, 7.7 21.52, 9.2 20.18 C10.7 18.84, 12.38 17.53, 14.22 16.28 C16.05 15.04, 18.06 13.83, 20.2 12.7 C22.34 11.57, 24.64 10.49, 27.05 9.48 C29.47 8.48, 32.03 7.53, 34.69 6.67 C37.34 5.81, 40.13 5.02, 42.99 4.32 C45.84 3.61, 48.81 2.99, 51.83 2.45 C54.85 1.91, 57.96 1.46, 61.09 1.1 C64.22 0.73, 67.42 0.46, 70.63 0.27 C73.83 0.09, 77.08 0, 80.31 0 C83.53 0, 86.79 0.09, 89.99 0.27 C93.19 0.46, 96.39 0.73, 99.53 1.1 C102.66 1.46, 105.77 1.91, 108.79 2.45 C111.8 2.99, 114.77 3.61, 117.63 4.32 C120.49 5.02, 123.27 5.81, 125.93 6.67 C128.58 7.53, 131.15 8.48, 133.56 9.48 C135.98 10.49, 138.28 11.57, 140.42 12.7 C142.56 13.83, 144.57 15.04, 146.4 16.28 C148.23 17.53, 149.92 18.84, 151.42 20.18 C152.92 21.52, 154.25 22.92, 155.4 24.33 C156.54 25.75, 157.51 27.21, 158.28 28.68 C159.06 30.15, 159.64 31.65, 160.03 33.16 C160.42 34.66, 160.62 36.19, 160.62 37.7" stroke="#000000" stroke-width="4" fill="none"/></g><g stroke-linecap="round"><g transform="translate(213.51815630081202 283.4668146247858) rotate(0 -1.0814357054312325 35.50607672424822)"><path d="M0 0 C-0.36 11.84, -1.8 59.18, -2.16 71.01 M0 0 C-0.36 11.84, -1.8 59.18, -2.16 71.01" stroke="#000000" stroke-width="4" fill="none"/></g></g><mask/><g stroke-linecap="round" transform="translate(10 10) rotate(0 190.03984966345638 197.5768408682394)"><path d="M32 0 M32 0 C136.79 1.12, 243.64 -1.32, 348.08 0 M32 0 C126.07 1.59, 221.96 1.93, 348.08 0 M348.08 0 C370.56 1.84, 382.47 8.81, 380.08 32 M348.08 0 C371.89 -2.51, 379.2 6.91, 380.08 32 M380.08 32 C383.71 132.75, 383.76 237.51, 380.08 363.15 M380.08 32 C378.79 146.21, 380.02 258.29, 380.08 363.15 M380.08 363.15 C383.26 387.34, 366.38 392.59, 348.08 395.15 M380.08 363.15 C379.68 385.54, 370.98 392.33, 348.08 395.15 M348.08 395.15 C277.75 396.49, 208.63 391.74, 32 395.15 M348.08 395.15 C261.65 394.36, 177.87 394.15, 32 395.15 M32 395.15 C11.22 395.14, 0.16 385.04, 0 363.15 M32 395.15 C14.66 395.52, 1.71 387.3, 0 363.15 M0 363.15 C4.05 246.81, 2.91 127.71, 0 32 M0 363.15 C4.93 245.85, 3.73 130.75, 0 32 M0 32 C3.62 12.87, 8.46 -1.3, 32 0 M0 32 C-0.65 11.84, 12.88 -2.64, 32 0" stroke="#000000" stroke-width="4" fill="none"/></g><g stroke-linecap="round"><g transform="translate(222.84685658013217 155.5930196194726) rotate(0 3.761270838985311 24.73035576632834)"><path d="M0 0 C-0.6 2.63, -5.42 7.55, -3.57 15.8 C-1.72 24.04, 8.65 43.85, 11.1 49.46 M0 0 C-0.6 2.63, -5.42 7.55, -3.57 15.8 C-1.72 24.04, 8.65 43.85, 11.1 49.46" stroke="#000000" stroke-width="4" fill="none"/></g></g><mask/><g stroke-linecap="round"><g transform="translate(234.3449172763449 205.6034632577323) rotate(0 -11.968731563905195 39.385477123083426)"><path d="M0 0 C-3.99 7.75, -20.41 33.35, -23.94 46.48 C-27.46 59.61, -21.62 73.39, -21.15 78.77 M0 0 C-3.99 7.75, -20.41 33.35, -23.94 46.48 C-27.46 59.61, -21.62 73.39, -21.15 78.77" stroke="#000000" stroke-width="4" fill="none"/></g></g><mask/><g stroke-linecap="round"><g transform="translate(347.5964823143404 201.19010617000734) rotate(0 7.25 -22)"><path d="M0 0 C2.42 -4.92, 12.42 -22.17, 14.5 -29.5 C16.58 -36.83, 12.83 -41.58, 12.5 -44 M0 0 C2.42 -4.92, 12.42 -22.17, 14.5 -29.5 C16.58 -36.83, 12.83 -41.58, 12.5 -44" stroke="#000000" stroke-width="4" fill="none"/></g></g><mask/><g stroke-linecap="round"><g transform="translate(347.9658098836574 201.8061082482879) rotate(0 12.106614319694884 40.15165357992372)"><path d="M0 0 C3.67 7, 17.96 28.62, 22 42 C26.04 55.38, 23.84 73.92, 24.21 80.3 M0 0 C3.67 7, 17.96 28.62, 22 42 C26.04 55.38, 23.84 73.92, 24.21 80.3" stroke="#000000" stroke-width="4" fill="none"/></g></g><mask/></svg>